<?xml version="1.0" encoding="UTF-8"?>
<svg width="720px" height="500px" viewBox="0 0 720 500" version="1.1" xmlns="http://www.w3.org/2000/svg" xmlns:xlink="http://www.w3.org/1999/xlink">
    <!-- Generator: Sketch 59.1 (86144) - https://sketch.com -->
    <title>Computer-Screen-1</title>
    <desc>Created with Sketch.</desc>
    <g id="Computer-Screen-1" stroke="none" stroke-width="1" fill="none" fill-rule="evenodd">
        <path d="M421.42769,476.744738 L359.999868,324.634891 L298.57246,476.743712 C298.631362,476.775279 298.710721,476.812324 298.809212,476.85127 C299.316125,477.05172 300.191007,477.255822 301.401717,477.453172 C303.830492,477.849071 307.554174,478.210427 312.337107,478.51589 C322.137089,479.141769 335.809501,479.5 350.724601,479.5 L369.275134,479.5 C384.205185,479.5 397.87794,479.142241 407.672818,478.516818 C412.454322,478.21151 416.175674,477.850232 418.602348,477.454231 C419.81191,477.256847 420.685764,477.052666 421.191813,476.852119 C421.289956,476.813225 421.369018,476.77624 421.42769,476.744738 Z M298.4578,476.668822 C298.456701,476.667382 298.45558,476.665969 298.454437,476.664584 C298.457716,476.668556 298.46246,476.673156 298.468648,476.678322 Z" id="Stand" stroke="#B0B0B0" fill="#DCDCDC"></path>
        <path d="M219.770007,490.5 L500.229993,490.5 L490.877952,469.5 L229.122048,469.5 L219.770007,490.5 Z" id="Base" stroke="#B0B0B0" fill="#DCDCDC"></path>
        <rect id="Frame" stroke="#B0B0B0" fill="#DCDCDC" x="10.5" y="10.5" width="699" height="399" rx="6"></rect>
        <rect id="Screen" stroke="#B0B0B0" fill="#FFFFFF" x="25.5" y="25.5" width="669" height="369" rx="6"></rect>
        <rect id="Login-Bg" stroke="#95A8BB" stroke-width="2" fill="#F4F6F8" x="166" y="63" width="389" height="294"></rect>
        <rect id="Input-2" stroke="#979797" fill="#FFFFFF" x="245" y="223" width="230" height="32" rx="5"></rect>
        <rect id="Input-1" stroke="#979797" fill="#FFFFFF" x="245" y="166" width="230" height="32" rx="5"></rect>
        <rect id="Rectangle-2" fill="#0000CC" x="245" y="283" width="230" height="50" rx="5"></rect>
        <path d="M193,93.0000319 C193,90.2385905 195.239002,88 197.995578,88 L523.004422,88 C525.763404,88 528,90.245531 528,93.0000319 L528,132.999968 C528,135.761409 525.760998,138 523.004422,138 L197.995578,138 C195.236596,138 193,135.754469 193,132.999968 L193,93.0000319 Z" id="Rectangle-1" fill="#CC0000"></path>
        <text id="Text-User-Name" font-family="ArialMT, Arial" font-size="24" font-weight="normal" fill="#50E3C2">
            <tspan x="299.320312" y="191">User Name</tspan>
        </text>
        <text id="Text-Password" font-family="ArialMT, Arial" font-size="24" font-weight="normal" fill="#50E3C2">
            <tspan x="307.3125" y="247">Password</tspan>
        </text>
        <text id="Text-Login" font-family="ArialMT, Arial" font-size="24" font-weight="normal" fill="#FFFFFF">
            <tspan x="330.638672" y="315">Login</tspan>
        </text>
        <text id="Text-DataFormsJS" font-family="Arial-BoldMT, Arial" font-size="36" font-weight="bold" fill="#FFFFFF">
            <tspan x="236" y="126">#DataFormsJS</tspan>
        </text>
    </g>
</svg>