<?xml version="1.0" encoding="UTF-8"?>
<svg width="720px" height="500px" viewBox="0 0 720 500" version="1.1" xmlns="http://www.w3.org/2000/svg" xmlns:xlink="http://www.w3.org/1999/xlink">
    <!-- Generator: Sketch 59.1 (86144) - https://sketch.com -->
    <title>Computer-Screen-2</title>
    <desc>Created with Sketch.</desc>
    <g id="Computer-Screen-2" stroke="none" stroke-width="1" fill="none" fill-rule="evenodd">
        <path d="M421.42769,476.744738 L359.999868,324.634891 L298.57246,476.743712 C298.631362,476.775279 298.710721,476.812324 298.809212,476.85127 C299.316125,477.05172 300.191007,477.255822 301.401717,477.453172 C303.830492,477.849071 307.554174,478.210427 312.337107,478.51589 C322.137089,479.141769 335.809501,479.5 350.724601,479.5 L369.275134,479.5 C384.205185,479.5 397.87794,479.142241 407.672818,478.516818 C412.454322,478.21151 416.175674,477.850232 418.602348,477.454231 C419.81191,477.256847 420.685764,477.052666 421.191813,476.852119 C421.289956,476.813225 421.369018,476.77624 421.42769,476.744738 Z M298.4578,476.668822 C298.456701,476.667382 298.45558,476.665969 298.454437,476.664584 C298.457716,476.668556 298.46246,476.673156 298.468648,476.678322 Z" id="Stand" stroke="#B0B0B0" fill="#DCDCDC"></path>
        <path d="M219.770007,490.5 L500.229993,490.5 L490.877952,469.5 L229.122048,469.5 L219.770007,490.5 Z" id="Base" stroke="#B0B0B0" fill="#DCDCDC"></path>
        <rect id="Frame" stroke="#B0B0B0" fill="#DCDCDC" x="10.5" y="10.5" width="699" height="399" rx="6"></rect>
        <rect id="Screen" stroke="#B0B0B0" fill="#FFFFFF" x="25.5" y="25.5" width="669" height="369" rx="6"></rect>
        <rect id="Input-2" fill="#7F00FF" x="485" y="119" width="180" height="251" rx="5"></rect>
        <path d="M270,123.999687 C270,121.238436 272.243283,119 275.002097,119 L444.997903,119 C447.760485,119 450,121.246579 450,123.999687 L450,365.000313 C450,367.761564 447.756717,370 444.997903,370 L275.002097,370 C272.239515,370 270,367.753421 270,365.000313 L270,123.999687 Z" id="Input-1" fill="#00FF7F"></path>
        <path d="M55,123.999687 C55,121.238436 57.2432833,119 60.0020972,119 L229.997903,119 C232.760485,119 235,121.246579 235,123.999687 L235,365.000313 C235,367.761564 232.756717,370 229.997903,370 L60.0020972,370 C57.2395152,370 55,367.753421 55,365.000313 L55,123.999687 Z" id="Rectangle-2" fill="#FF7F00"></path>
        <path d="M55,49.0000319 C55,46.2385905 57.2392101,44 59.9998229,44 L660.000177,44 C662.761503,44 665,46.245531 665,49.0000319 L665,88.9999681 C665,91.7614095 662.76079,94 660.000177,94 L59.9998229,94 C57.238497,94 55,91.754469 55,88.9999681 L55,49.0000319 Z" id="Rectangle-1" fill="#CC0000"></path>
        <text id="Text-DataFormsJS" font-family="Arial-BoldMT, Arial" font-size="36" font-weight="bold" fill="#FFFFFF">
            <tspan x="244" y="82">#DataFormsJS</tspan>
        </text>
    </g>
</svg>