<?xml version="1.0" encoding="UTF-8"?>
<svg width="720px" height="500px" viewBox="0 0 720 500" version="1.1" xmlns="http://www.w3.org/2000/svg" xmlns:xlink="http://www.w3.org/1999/xlink">
    <!-- Generator: Sketch 59.1 (86144) - https://sketch.com -->
    <title>Computer-Screen-3</title>
    <desc>Created with Sketch.</desc>
    <g id="Computer-Screen-3" stroke="none" stroke-width="1" fill="none" fill-rule="evenodd">
        <rect id="Frame" stroke="#B0B0B0" fill="#DCDCDC" x="167.5" y="12.5" width="384.992187" height="478.675781" rx="6"></rect>
        <path d="M182.5,35.9990065 L182.5,467.701091 C182.5,470.735559 184.960971,473.200098 187.993179,473.200098 L532.041206,473.200098 C535.072927,473.200098 537.534385,470.737118 537.534385,467.701091 L537.534385,35.9990065 C537.534385,32.9645387 535.073414,30.5 532.041206,30.5 L187.993179,30.5 C184.961458,30.5 182.5,32.96298 182.5,35.9990065 Z" id="Screen" stroke="#B0B0B0" fill="#FFFFFF"></path>
        <rect id="Row-7" fill="#D9B3FF" x="210" y="432" width="300" height="25"></rect>
        <rect id="Row-6" fill="#A64DFF" x="210" y="397" width="300" height="25"></rect>
        <rect id="Row-5" fill="#D9B3FF" x="210" y="362" width="300" height="25"></rect>
        <rect id="Row-4" fill="#A64DFF" x="210" y="327" width="300" height="25"></rect>
        <rect id="Row-3" fill="#D9B3FF" x="210" y="292" width="300" height="25"></rect>
        <rect id="Row-2" fill="#A64DFF" x="210" y="257" width="300" height="25"></rect>
        <rect id="Input-2" fill="#D9B3FF" x="210" y="222" width="300" height="25"></rect>
        <rect id="Input-1" fill="#A64DFF" x="210" y="187" width="300" height="25"></rect>
        <rect id="Rectangle-2" stroke="#979797" fill="#FFFFFF" x="210" y="123" width="300" height="35" rx="5"></rect>
        <text id="Text-Filter" font-family="ArialMT, Arial" font-size="28" font-weight="normal" fill="#50E3C2">
            <tspan x="328.889648" y="150">Filter</tspan>
        </text>
        <path d="M210,50.0000319 C210,47.2385905 212.242291,45 215.003251,45 L504.996749,45 C507.759968,45 510,47.245531 510,50.0000319 L510,89.9999681 C510,92.7614095 507.757709,95 504.996749,95 L215.003251,95 C212.240032,95 210,92.754469 210,89.9999681 L210,50.0000319 Z" id="Rectangle-1" fill="#CC0000"></path>
        <text id="Text-DataFormsJS" font-family="Arial-BoldMT, Arial" font-size="36" font-weight="bold" fill="#FFFFFF">
            <tspan x="234" y="83">#DataFormsJS</tspan>
        </text>
    </g>
</svg>